<svg xmlns="http://www.w3.org/2000/svg" xmlns:xlink="http://www.w3.org/1999/xlink" viewBox="0 0 800 400"><defs><style>.a{fill:none;}.b{clip-path:url(#a);}.xxar_vector_img{fill:#004b8d;}.xxar_vector_img:hover{fill:$fff;}</style></defs><g class="xxar_vector_img"><path class="xxar_vector_img" d="M451.19,41.3c-15.35,0-30.35.69-36.28,1.63C457,57.55,395,56.76,364.55,70.74c-44.32,20.33-44.86,36.84-72.24,29.22-11-3.06-41-1.44-63.18,4.3-5,1.29,38.43-35.62,103.43-55.37-34.64,2.94-128,54.61-129.26,61.94,11.28-1.25,87.88,4.3,108.85,5,19.77.62,57,7,72.7,2.54,17.55-5,82.42-53.06,104.68-74.28-7.31-2-23-2.71-38.35-2.73ZM552.76,43.8a153.07,153.07,0,0,0-24.12,1.49c-28.38,4.27-60.32,32.38-87.3,59.18-17.73,17.71-29.86,33.44-28.64,37.15a5.22,5.22,0,0,0,4.79,3.81c30.91-4.18,64.61-8.37,91.94-11.69,27.53-3.23,59.16-7.91,83.44-11.6-61.08,3.47-93.2,2.24-139.73,7.2,9.93-7.68,9.92-11.79,17.67-15.26,8.59-3.84,98.15.21,95.18-25.31-42-61.7,104-23.05,103.19.59-.32,9-13.31,25.42-8.45,25,14.23-1.1,25.48-4.85,37.08-6.61-2.5-5.81-7-17.75-12.38-23.88-6.39-7.34-17.75-14.5-33.91-20.82-30.24-11.51-67.84-19-98.77-19.28ZM324.44,166.59c-6.73,0-16.69,1.67-22.82,2.39-14.15,1.66-28.7,3.47-35.59,5.64,16.46-.91,22.66-1.15,28.46-1.22,17.16-.2,14.65,3.19,14,5.32-.52,1.8-27.22,1.42-24.75,3.25,5,3.66,7.55,6.19,6.51,6.54-4.49,1.54-31.26,5.73-38.86,12,18.14-3.51,48.17-6.33,61-11.2,3.87-1.48,19-18.79,19.11-20.07-.17-1.91-3-2.58-7.08-2.61ZM718.2,179.65c-23.45-.41-33.69,40.13-36,57.83-1.73,13.39-2,17.64-1.15,35,.14,2.84.18,4.18-2.59,4.47-17.33,1.83-52.88,4-84.41,8.2-58,7.64-149.38,24.93-149.84,22.87,3.94-17.45,6.26-32.82,4.64-49.53-2-20-7.83-36.16-17.65-48.88a49.05,49.05,0,0,0-23-16.45c-7.48-2.45-20.38-2.65-27.71-.41-17,5.18-33.74,19.82-42.55,37.18-10.25,20.19-14.59,39.78-16.38,73.82-.68,13-1.8,17.59-4.54,19-5.56,2.84-102.36,4.12-120.62,1.59-5.68-.79-16.34-4.33-20.65-6.86-8.31-4.88-21.76-8.08-40.55-9.4-28.44-2-54.78-6-84.12-10,26.51,13.75,44.7,17.13,71.23,24.53-20.31,1.05-46.4,8-44.77,13.65,3.66,12.57,92.27,19.27,137.24,21.17,27.61,1.16,119.8,2.4,174.47-.46,86-4.51,157.17-27.17,207.85-35.64,29.93-5,115.51-11.43,123.15-12.84,18.89-3.5,28.39-39.23,28.71-58.42.44-26-7.07-69.94-30.74-70.35Zm-541.43,10c1.93,9.18,3.94,19.53,5.37,26.17a52.35,52.35,0,0,1,9.35-3.37c3.33-.72,34.5-8,36.5-10.06-2.25-.52-28.65,5.86-34.3,4.42a15.72,15.72,0,0,1-6.62-3.37c-3.95-3.42-5.77-8.51-10.3-13.79Zm541.77,5.88c.46,0,.93,0,1.39.1,14.81,1.66,25.39,25.5,23.63,53.27s-15.19,48.92-30,47.26-25.39-25.51-23.63-53.27c1.7-26.89,14.35-47.6,28.61-47.36Zm-666.73,11c5.44,5.17,24.78,14.22,37.23,15.7,15.86,1.89,49.11-2.16,67.28-7.3-43.2,3.69-77.69,0-104.51-8.4ZM394.4,214.8c.74,0,1.48,0,2.22.09,23.74,2.12,40.68,32.65,37.86,68.16s-24.33,62.57-48.06,60.44-40.7-32.62-37.89-68.13c2.73-34.4,23-60.87,45.87-60.56ZM262.73,260.33c-13.69-.07-42.83,1-50.88,2.9-2.39,1.61-4.73,3.53-6,6.18,18,.51,64.14-1.43,60.42,1.39s-37.07,5.93-59,6.76c-2.78.1-11.17.29-11.38,2.83-.16,3.06,6.85,7.38,13.87,7,18.17-1,65.33-.75,73.33-6,3.45-2.28-9.1-20.16-13.82-20.77-1.06-.14-3.39-.23-6.54-.24Z"/><path class="xxar_vector_img" d="M695.24,244.68c-1.4,22.16,7,41.2,18.87,42.53s22.55-15.57,23.95-37.73-7-41.2-18.87-42.52-22.55,15.57-23.95,37.73Z"/><path class="xxar_vector_img" d="M358.86,277.48c-2.13,26.9,10.71,50,28.69,51.61s34.28-18.9,36.42-45.8-10.71-50-28.69-51.61-34.28,18.9-36.42,45.8Z"/></g></svg>