<svg id="Group_26" data-name="Group 26" xmlns="http://www.w3.org/2000/svg" viewBox="3791 3613 246.756 246.756">
  <defs>
    <style>
      .cls-1 {
        fill: #95989a;
        stroke: rgba(0,0,0,0);
        stroke-width: 1px;
      }

      .cls-2, .cls-4 {
        fill: none;
      }

      .cls-2 {
        stroke: #95989a;
        stroke-width: 15px;
      }

      .cls-3 {
        stroke: none;
      }
    </style>
  </defs>
  <path id="_" data-name="" class="cls-1" d="M103.445-44.848a55.621,55.621,0,0,1-6.263,26.671A45.154,45.154,0,0,1,79.329.108,52.811,52.811,0,0,1,52.766,6.695,51.767,51.767,0,0,1,32.25,2.52,52.843,52.843,0,0,1,15.405-8.71,52.843,52.843,0,0,1,4.175-25.555,51.767,51.767,0,0,1,0-46.071,51.767,51.767,0,0,1,4.175-66.588a52.843,52.843,0,0,1,11.23-16.845A52.843,52.843,0,0,1,32.25-94.662a51.767,51.767,0,0,1,20.516-4.175A49.9,49.9,0,0,1,88.112-85.016L73.786-71.267Q65.364-79.4,52.766-79.4a31.521,31.521,0,0,0-16.377,4.463,32.831,32.831,0,0,0-11.914,12.13,33.092,33.092,0,0,0-4.391,16.737,33.092,33.092,0,0,0,4.391,16.737A32.831,32.831,0,0,0,36.389-17.2a31.521,31.521,0,0,0,16.377,4.463A34.769,34.769,0,0,0,63.744-14.4a27.852,27.852,0,0,0,8.242-4.139,30.006,30.006,0,0,0,5.651-5.651,25.8,25.8,0,0,0,3.527-5.975,26.719,26.719,0,0,0,1.548-5.327H52.766V-53.63h49.815A46.912,46.912,0,0,1,103.445-44.848Zm62.412-8.782v15.117H150.812v15.045H135.695V-38.513H120.65V-53.63h15.045V-68.675h15.117V-53.63Z" transform="translate(3831 3782.838)"/>
  <g id="Ellipse_33" data-name="Ellipse 33" class="cls-2" transform="translate(3791 3613)">
    <circle class="cls-3" cx="123.378" cy="123.378" r="123.378"/>
    <circle class="cls-4" cx="123.378" cy="123.378" r="115.878"/>
  </g>
</svg>
