<svg xmlns="http://www.w3.org/2000/svg" viewBox="4265.5 565.214 43.857 43.857">
  <defs>
    <style>
      .cls-1 {
        fill: #005125;
        stroke: rgba(0,0,0,0);
        stroke-width: 1px;
      }
    </style>
  </defs>
  <path id="_" data-name="ïš" class="cls-1" d="M28.571-4.464V-8.929a.869.869,0,0,0-.251-.642.869.869,0,0,0-.642-.251H25V-24.107a.869.869,0,0,0-.251-.642A.869.869,0,0,0,24.107-25H15.179a.869.869,0,0,0-.642.251.869.869,0,0,0-.251.642v4.464a.869.869,0,0,0,.251.642.869.869,0,0,0,.642.251h2.679v8.929H15.179a.869.869,0,0,0-.642.251.869.869,0,0,0-.251.642v4.464a.869.869,0,0,0,.251.642.869.869,0,0,0,.642.251h12.5a.869.869,0,0,0,.642-.251A.869.869,0,0,0,28.571-4.464ZM25-29.464v-4.464a.869.869,0,0,0-.251-.642.869.869,0,0,0-.642-.251H18.75a.869.869,0,0,0-.642.251.869.869,0,0,0-.251.642v4.464a.869.869,0,0,0,.251.642.869.869,0,0,0,.642.251h5.357a.869.869,0,0,0,.642-.251A.869.869,0,0,0,25-29.464ZM42.857-17.857A20.962,20.962,0,0,1,39.983-7.1a21.332,21.332,0,0,1-7.8,7.8A20.962,20.962,0,0,1,21.429,3.571,20.962,20.962,0,0,1,10.672.7a21.332,21.332,0,0,1-7.8-7.8A20.962,20.962,0,0,1,0-17.857,20.962,20.962,0,0,1,2.874-28.613a21.332,21.332,0,0,1,7.8-7.8,20.962,20.962,0,0,1,10.756-2.874,20.962,20.962,0,0,1,10.756,2.874,21.332,21.332,0,0,1,7.8,7.8A20.962,20.962,0,0,1,42.857-17.857Z" transform="translate(4266 605)"/>
</svg>
