<svg id="Group_28" data-name="Group 28" xmlns="http://www.w3.org/2000/svg" viewBox="4657 3613 246.756 246.756">
  <defs>
    <style>
      .cls-1 {
        fill: #95989a;
        stroke: rgba(0,0,0,0);
        stroke-width: 1px;
      }

      .cls-2, .cls-4 {
        fill: none;
      }

      .cls-2 {
        stroke: #95989a;
        stroke-width: 15px;
      }

      .cls-3 {
        stroke: none;
      }
    </style>
  </defs>
  <path id="_" data-name="" class="cls-1" d="M73.714-46.071a17.755,17.755,0,0,0-5.4-13.03,17.755,17.755,0,0,0-13.03-5.4,17.755,17.755,0,0,0-13.03,5.4,17.755,17.755,0,0,0-5.4,13.03,17.755,17.755,0,0,0,5.4,13.03,17.755,17.755,0,0,0,13.03,5.4,17.755,17.755,0,0,0,13.03-5.4A17.755,17.755,0,0,0,73.714-46.071Zm9.934,0A27.348,27.348,0,0,1,75.37-25.987a27.348,27.348,0,0,1-20.084,8.278A27.348,27.348,0,0,1,35.2-25.987a27.348,27.348,0,0,1-8.278-20.084A27.348,27.348,0,0,1,35.2-66.156a27.348,27.348,0,0,1,20.084-8.278A27.348,27.348,0,0,1,75.37-66.156,27.348,27.348,0,0,1,83.648-46.071Zm7.775-29.515a6.379,6.379,0,0,1-1.944,4.679A6.379,6.379,0,0,1,84.8-68.963a6.379,6.379,0,0,1-4.679-1.944,6.378,6.378,0,0,1-1.944-4.679,6.378,6.378,0,0,1,1.944-4.679A6.379,6.379,0,0,1,84.8-82.209a6.379,6.379,0,0,1,4.679,1.944A6.379,6.379,0,0,1,91.423-75.586ZM55.286-91.423q-.5,0-5.507-.036t-7.595,0q-2.592.036-6.947.216a57.048,57.048,0,0,0-7.415.72,28.863,28.863,0,0,0-5.147,1.332,18.676,18.676,0,0,0-6.335,4.175,18.676,18.676,0,0,0-4.175,6.335,28.863,28.863,0,0,0-1.332,5.147,57.047,57.047,0,0,0-.72,7.415q-.18,4.355-.216,6.947t0,7.595q.036,5,.036,5.507T9.9-40.564q-.036,5,0,7.595t.216,6.947a57.047,57.047,0,0,0,.72,7.415,28.863,28.863,0,0,0,1.332,5.147,18.676,18.676,0,0,0,4.175,6.335,18.676,18.676,0,0,0,6.335,4.175A28.863,28.863,0,0,0,27.823-1.62a57.047,57.047,0,0,0,7.415.72q4.355.18,6.947.216t7.595,0q5-.036,5.507-.036t5.507.036q5,.036,7.595,0T75.334-.9a57.047,57.047,0,0,0,7.415-.72A28.863,28.863,0,0,0,87.9-2.951,18.676,18.676,0,0,0,94.23-7.127a18.676,18.676,0,0,0,4.175-6.335,28.863,28.863,0,0,0,1.332-5.147,57.048,57.048,0,0,0,.72-7.415q.18-4.355.216-6.947t0-7.595q-.036-5-.036-5.507t.036-5.507q.036-5,0-7.595t-.216-6.947a57.048,57.048,0,0,0-.72-7.415,28.863,28.863,0,0,0-1.332-5.147,18.676,18.676,0,0,0-4.175-6.335A18.676,18.676,0,0,0,87.9-89.191a28.863,28.863,0,0,0-5.147-1.332,57.048,57.048,0,0,0-7.415-.72q-4.355-.18-6.947-.216t-7.595,0Q55.79-91.423,55.286-91.423Zm55.286,45.352q0,16.485-.36,22.82-.72,14.973-8.926,23.18T78.105,8.854q-6.335.36-22.82.36t-22.82-.36Q17.493,8.134,9.286-.072T.36-23.252Q0-29.586,0-46.071t.36-22.82q.72-14.973,8.926-23.18T32.466-101q6.335-.36,22.82-.36t22.82.36q14.973.72,23.18,8.926t8.926,23.18Q110.571-62.556,110.571-46.071Z" transform="translate(4725 3782.357)"/>
  <g id="Ellipse_35" data-name="Ellipse 35" class="cls-2" transform="translate(4657 3613)">
    <circle class="cls-3" cx="123.378" cy="123.378" r="123.378"/>
    <circle class="cls-4" cx="123.378" cy="123.378" r="115.878"/>
  </g>
</svg>
