<svg xmlns="http://www.w3.org/2000/svg" viewBox="9865.5 69.786 86.714 93.857">
  <defs>
    <style>
      .cls-1 {
        fill: #fff;
        stroke: rgba(0,0,0,0);
        stroke-width: 1px;
      }
    </style>
  </defs>
  <path id="_" data-name="" class="cls-1" d="M14.286-10.714a3.432,3.432,0,0,0-1.06-2.511,3.432,3.432,0,0,0-2.511-1.06A3.432,3.432,0,0,0,8.2-13.225a3.432,3.432,0,0,0-1.06,2.511A3.432,3.432,0,0,0,8.2-8.2a3.432,3.432,0,0,0,2.511,1.06A3.432,3.432,0,0,0,13.225-8.2,3.432,3.432,0,0,0,14.286-10.714ZM78.571-42.857A6.808,6.808,0,0,0,76.4-47.852,6.881,6.881,0,0,0,71.429-50H51.786q0-3.237,2.679-8.9t2.679-8.956q0-5.469-1.786-8.092t-7.143-2.623a9.246,9.246,0,0,0-2.121,4.743q-.67,3.292-1.7,7a14.178,14.178,0,0,1-3.32,6.11q-1.228,1.283-4.3,5.078-.223.279-1.283,1.674t-1.758,2.288q-.7.893-1.925,2.372a31.71,31.71,0,0,1-2.232,2.455q-1,.977-2.148,1.981A9.431,9.431,0,0,1,25.2-43.359a4.787,4.787,0,0,1-1.981.5H21.429V-7.143h1.786a11.257,11.257,0,0,1,1.758.167q1.032.167,1.842.363T28.934-6q1.311.419,1.953.642t1.981.7q1.339.474,1.618.586Q46.261,0,53.571,0h6.752Q71.038,0,71.038-9.319a19.075,19.075,0,0,0-.279-3.125,6.222,6.222,0,0,0,2.651-2.93,9.407,9.407,0,0,0,.977-4.1,7.726,7.726,0,0,0-1-3.85,8.823,8.823,0,0,0,2.958-6.641,10.03,10.03,0,0,0-.558-3.1,7.52,7.52,0,0,0-1.4-2.651q1.786-.056,2.985-2.623A10.938,10.938,0,0,0,78.571-42.857Zm7.143-.056a16.131,16.131,0,0,1-2.734,9.1,14.57,14.57,0,0,1,.5,3.85,16.024,16.024,0,0,1-2.121,8.036,16.949,16.949,0,0,1,.167,2.4A15.707,15.707,0,0,1,78.181-9.6q.056,7.757-4.743,12.249T60.77,7.143h-7.2A45.042,45.042,0,0,1,43,5.887Q37.779,4.632,30.915,2.232,24.442,0,23.214,0H7.143a6.882,6.882,0,0,1-5.05-2.093A6.882,6.882,0,0,1,0-7.143V-42.857a6.882,6.882,0,0,1,2.093-5.05A6.882,6.882,0,0,1,7.143-50h15.29q2.009-1.339,7.645-8.65,3.237-4.185,5.971-7.143a9.472,9.472,0,0,0,1.981-4.771q.642-3.376,1.7-7.059a13.419,13.419,0,0,1,3.46-6.027,7.081,7.081,0,0,1,5.022-2.065A19.059,19.059,0,0,1,56.641-83.9a12.263,12.263,0,0,1,5.692,5.664q1.953,3.85,1.953,10.379a24.494,24.494,0,0,1-2.679,10.714h9.821A13.729,13.729,0,0,1,81.473-52.9,13.666,13.666,0,0,1,85.714-42.913Z" transform="translate(9866 156)"/>
</svg>
