<svg id="Group_25" data-name="Group 25" xmlns="http://www.w3.org/2000/svg" viewBox="5371 2778 212.065 212.065">
  <defs>
    <style>
      .cls-1 {
        fill: #95989a;
        stroke: rgba(0,0,0,0);
        stroke-width: 1px;
      }

      .cls-2, .cls-4 {
        fill: none;
      }

      .cls-2 {
        stroke: #95989a;
        stroke-width: 15px;
      }

      .cls-3 {
        stroke: none;
      }
    </style>
  </defs>
  <path id="_" data-name="" class="cls-1" d="M60.687-18.25V-5.062q0,4.188-2.437,4.188A4.011,4.011,0,0,1,55.438-2.25V-21.062a4.011,4.011,0,0,1,2.813-1.375Q60.687-22.437,60.687-18.25Zm21.125.063v2.875H76.188v-2.875q0-4.25,2.813-4.25T81.813-18.187ZM21.438-31.812h6.688v-5.875H8.625v5.875h6.563V3.75h6.25Zm18,35.563H45V-27.125H39.438V-3.5Q37.563-.875,35.875-.875q-1.125,0-1.312-1.312A17.4,17.4,0,0,1,34.5-4.375v-22.75H28.938V-2.687a15.453,15.453,0,0,0,.5,4.563q.75,2.313,3.625,2.313,3,0,6.375-3.812ZM66.25-5.5V-17.812A22.227,22.227,0,0,0,65.688-24q-1.063-3.5-4.437-3.5-3.125,0-5.812,3.375V-37.687H49.875V3.75h5.563v-3Q58.25,4.188,61.25,4.188A4.326,4.326,0,0,0,65.688.75,22.976,22.976,0,0,0,66.25-5.5Zm21.125-.625v-.812H81.688a30.946,30.946,0,0,1-.125,3.813,2.392,2.392,0,0,1-2.5,2.25q-2.875,0-2.875-4.312v-5.437H87.375v-6.437q0-4.937-1.687-7.25A7.9,7.9,0,0,0,79.063-27.5a7.958,7.958,0,0,0-6.687,3.188q-1.75,2.312-1.75,7.25V-6.25q0,4.938,1.813,7.25a8.022,8.022,0,0,0,6.75,3.188A7.616,7.616,0,0,0,85.938.875,7.6,7.6,0,0,0,87.25-2.5,27.513,27.513,0,0,0,87.375-6.125Zm-38-57.062V-76.312q0-4.312-2.687-4.312T44-76.312v13.125q0,4.375,2.688,4.375T49.375-63.187ZM94.313-16.25q0,14.625-1.625,21.875a11.869,11.869,0,0,1-3.625,6.188,10.933,10.933,0,0,1-6.375,2.875Q71.188,16,48,16T13.313,14.688a11.078,11.078,0,0,1-6.406-2.875A11.423,11.423,0,0,1,3.313,5.625q-1.625-7-1.625-21.875,0-14.625,1.625-21.875a11.869,11.869,0,0,1,3.625-6.187,11.333,11.333,0,0,1,6.438-2.937Q24.813-48.5,48-48.5t34.688,1.25a11.432,11.432,0,0,1,6.406,2.938,11.423,11.423,0,0,1,3.594,6.188Q94.313-31.125,94.313-16.25ZM31.938-96h6.375L30.75-71.062v16.938H24.5V-71.062a105.836,105.836,0,0,0-3.812-13.25Q18.375-90.75,16.625-96H23.25l4.438,16.438ZM55.063-75.187V-64.25q0,5.062-1.75,7.375a7.689,7.689,0,0,1-6.625,3.188,7.729,7.729,0,0,1-6.562-3.187q-1.75-2.375-1.75-7.375V-75.187q0-5,1.75-7.312a7.729,7.729,0,0,1,6.563-3.187A7.689,7.689,0,0,1,53.313-82.5Q55.063-80.188,55.063-75.187ZM76-85.312v31.188H70.313v-3.437Q67-53.688,63.875-53.687,61-53.687,60.188-56a16.034,16.034,0,0,1-.5-4.687V-85.312h5.688v22.938a16.375,16.375,0,0,0,.063,2.188q.188,1.375,1.313,1.375,1.688,0,3.563-2.687V-85.312Z" transform="translate(5429.313 2924)"/>
  <g id="Ellipse_32" data-name="Ellipse 32" class="cls-2" transform="translate(5371 2778)">
    <circle class="cls-3" cx="106.032" cy="106.032" r="106.032"/>
    <circle class="cls-4" cx="106.032" cy="106.032" r="98.532"/>
  </g>
</svg>
